# xmcd
#
# Track frame offsets: 
#        183
#        12238
#        23570
#        36408
#        50215
#        64240
#        78920
#        93258
#        106868
#        120688
#        136438
#        148895
#
# Disc length: 2172 seconds
#
# Revision: 0
# Processed by: cddbd v1.5.1PL0 Copyright (c) Steve Scherf et al.
# Submitted via: ExactAudioCopy v0.95a3
#
DISCID=a4087a0c
DTITLE=Louis Armstrong - The Millenium Anthology [CD2]
DYEAR=1992
DGENRE=Blues
TTITLE0=Muskrat Ramble
TTITLE1=My Heart
TTITLE2=Gut Bucket Blues
TTITLE3=Heebie Jeebies
TTITLE4=Cornet Chop Suey
TTITLE5=Skid-Dat- De Dat
TTITLE6=Ory's Creole Trombone
TTITLE7=Struttin' With Some Barbecue
TTITLE8=Hotter Than That
TTITLE9=Savoy Blues
TTITLE10=New Orleans Stomp
TTITLE11=Wild Man Blues
EXTD=
EXTT0=
EXTT1=
EXTT2=
EXTT3=
EXTT4=
EXTT5=
EXTT6=
EXTT7=
EXTT8=
EXTT9=
EXTT10=
EXTT11=
PLAYORDER=
